<svg width="47" height="38" viewBox="0 0 47 38" fill="none" xmlns="http://www.w3.org/2000/svg">
<path d="M46.9163 16.9164C46.9163 10.8031 42.1797 5.85644 36.2063 5.34311C34.4797 2.51978 31.3997 0.606445 27.853 0.606445H10.6563C5.24301 0.606445 0.833008 5.01645 0.833008 10.4298V11.6664H37.6763V10.4298C37.6763 9.98645 37.6063 9.54311 37.5363 9.12311C40.9197 10.1264 43.4163 13.2064 43.4163 16.9164C43.4163 20.5798 40.9897 23.6364 37.6763 24.6631V13.9998H0.833008V27.5098C0.833008 32.9231 5.24301 37.3331 10.6563 37.3331H27.853C32.9863 37.3331 37.163 33.3664 37.583 28.3264C42.903 27.2531 46.9163 22.5398 46.9163 16.9164Z" fill="white"/>
</svg>
